<?xml version="1.0" standalone="no"?>
<!DOCTYPE svg PUBLIC "-//W3C//DTD SVG 20010904//EN"
 "http://www.w3.org/TR/2001/REC-SVG-20010904/DTD/svg10.dtd">
<svg version="1.0" xmlns="http://www.w3.org/2000/svg"
 width="512.000000pt" height="512.000000pt" viewBox="0 0 512.000000 512.000000"
 preserveAspectRatio="xMidYMid meet">

<g transform="translate(0.000000,512.000000) scale(0.100000,-0.100000)"
fill="#000000" stroke="none">
<path d="M1375 4626 c-62 -28 -95 -85 -95 -164 -1 -146 -74 -315 -185 -428
-117 -118 -244 -176 -422 -193 -100 -9 -127 -21 -167 -75 -29 -39 -29 -133 0
-172 40 -54 67 -66 165 -75 178 -17 300 -71 415 -184 118 -117 176 -244 193
-422 9 -100 21 -127 75 -167 39 -29 133 -29 172 0 54 40 66 67 75 165 17 182
71 301 189 419 118 118 237 172 419 189 98 9 125 21 165 75 29 39 29 133 0
172 -40 54 -66 66 -170 76 -173 16 -300 74 -419 193 -113 113 -167 235 -184
414 -9 98 -21 125 -73 164 -34 25 -113 32 -153 13z m108 -734 c38 -50 127
-138 187 -185 l35 -27 -35 -27 c-45 -34 -169 -158 -203 -203 l-27 -35 -27 35
c-34 45 -158 169 -203 203 l-35 27 35 27 c60 47 149 135 187 185 21 26 40 48
43 48 3 0 22 -22 43 -48z"/>
<path d="M3295 4146 c-42 -18 -83 -69 -89 -109 -3 -18 -8 -68 -11 -112 -16
-232 -108 -427 -280 -600 -180 -180 -365 -263 -631 -284 -112 -8 -136 -19
-178 -75 -29 -39 -29 -133 0 -172 42 -56 66 -67 178 -75 267 -21 456 -107 636
-289 175 -176 258 -364 279 -626 8 -112 19 -136 75 -178 39 -29 133 -29 172 0
56 42 67 66 75 178 21 260 106 453 279 627 175 177 373 267 633 288 115 8 139
18 181 75 16 20 21 42 21 86 0 44 -5 66 -21 86 -41 56 -66 67 -177 75 -164 13
-251 36 -382 101 -210 105 -379 287 -464 499 -41 102 -60 187 -70 315 -8 111
-19 137 -73 177 -33 25 -113 32 -153 13z m120 -854 c29 -45 97 -125 165 -192
67 -68 147 -136 192 -165 43 -28 78 -52 78 -55 0 -3 -35 -27 -78 -55 -45 -29
-125 -97 -192 -165 -68 -67 -136 -147 -165 -192 -28 -43 -52 -78 -55 -78 -3 0
-27 35 -55 78 -29 45 -97 125 -165 192 -67 68 -147 136 -192 165 -43 28 -78
52 -78 55 0 3 35 27 78 55 45 29 125 97 192 165 68 67 136 147 165 192 28 43
52 78 55 78 3 0 27 -35 55 -78z"/>
<path d="M2015 2386 c-62 -28 -95 -85 -95 -164 -1 -146 -74 -315 -185 -428
-117 -118 -244 -176 -422 -193 -100 -9 -127 -21 -167 -75 -29 -39 -29 -133 0
-172 40 -54 67 -66 165 -75 178 -17 300 -71 415 -184 118 -117 176 -244 193
-422 9 -100 21 -127 75 -167 39 -29 133 -29 172 0 54 40 66 67 75 165 17 182
71 301 189 419 118 118 237 172 419 189 98 9 125 21 165 75 29 39 29 133 0
172 -40 54 -66 66 -170 76 -173 16 -300 74 -419 193 -113 113 -167 235 -184
414 -9 98 -21 125 -73 164 -34 25 -113 32 -153 13z m108 -734 c38 -50 127
-138 187 -185 l35 -27 -35 -27 c-45 -34 -169 -158 -203 -203 l-27 -35 -27 35
c-34 45 -158 169 -203 203 l-35 27 35 27 c60 47 149 135 187 185 21 26 40 48
43 48 3 0 22 -22 43 -48z"/>
</g>
</svg>
